<?xml version="1.0"?><svg xmlns="http://www.w3.org/2000/svg" viewBox="0 0 100 100">    <path d="M 30.960938 17.960938 C 23.792938 17.960938 17.960938 23.792938 17.960938 30.960938 L 17.960938 69.960938 C 17.960938 77.128938 23.792938 82.960938 30.960938 82.960938 L 69.960938 82.960938 C 77.128938 82.960938 82.960938 77.128938 82.960938 69.960938 L 82.960938 30.960938 C 82.960938 23.791938 77.128938 17.960938 69.960938 17.960938 L 30.960938 17.960938 z M 30.960938 19.960938 L 69.960938 19.960938 C 76.025937 19.960938 80.960938 24.895937 80.960938 30.960938 L 80.960938 69.960938 C 80.960938 76.025937 76.025937 80.960938 69.960938 80.960938 L 30.960938 80.960938 C 24.895937 80.960938 19.960938 76.025937 19.960938 69.960938 L 19.960938 30.960938 C 19.960938 24.895937 24.895937 19.960938 30.960938 19.960938 z M 33.798828 22.960938 C 27.822828 22.960938 22.960937 27.822828 22.960938 33.798828 L 22.960938 67.123047 C 22.960938 73.099047 27.822828 77.960938 33.798828 77.960938 L 67.123047 77.960938 C 73.099047 77.960938 77.960938 73.099047 77.960938 67.123047 L 77.960938 48.460938 C 77.960938 48.183937 77.736938 47.960938 77.460938 47.960938 C 77.184938 47.960938 76.960938 48.184937 76.960938 48.460938 L 76.960938 67.123047 C 76.960938 72.547047 72.547047 76.960938 67.123047 76.960938 L 33.798828 76.960938 C 28.374828 76.960938 23.960937 72.547047 23.960938 67.123047 L 23.960938 33.798828 C 23.960938 28.374828 28.374828 23.960937 33.798828 23.960938 L 67.460938 23.960938 C 67.736937 23.960938 67.960938 23.736937 67.960938 23.460938 C 67.960938 23.184938 67.736938 22.960937 67.460938 22.960938 L 33.798828 22.960938 z M 77.460938 36.960938 C 77.184938 36.960938 76.960938 37.183937 76.960938 37.460938 L 76.960938 39.460938 C 76.960938 39.736938 77.184937 39.960938 77.460938 39.960938 C 77.736937 39.960938 77.960938 39.736937 77.960938 39.460938 L 77.960938 37.460938 C 77.960938 37.184937 77.736938 36.960938 77.460938 36.960938 z M 49.980469 37.960938 C 41.191469 37.960938 34.044922 43.119937 34.044922 49.460938 C 34.044922 55.801938 41.193422 60.958984 49.982422 60.958984 C 52.893422 60.958984 55.741469 60.383969 58.230469 59.292969 C 58.472469 59.410969 59.273266 59.876313 61.697266 61.695312 C 61.858266 61.816313 62.050234 61.876953 62.240234 61.876953 C 62.423234 61.876953 62.606672 61.820984 62.763672 61.708984 C 63.083672 61.479984 63.216703 61.075172 63.095703 60.701172 C 62.783703 59.740172 62.365703 58.330781 62.095703 56.925781 C 64.563703 54.840781 65.919922 52.199938 65.919922 49.460938 C 65.919922 43.119937 58.769469 37.960937 49.980469 37.960938 z M 49.982422 38.960938 C 58.219422 38.960938 64.919922 43.671938 64.919922 49.460938 C 64.918922 51.976938 63.610328 54.417938 61.236328 56.335938 C 61.094328 56.450938 61.026594 56.6325 61.058594 56.8125 C 61.308594 58.2245 61.716875 59.663031 62.046875 60.707031 C 59.270875 58.633031 58.536266 58.253906 58.197266 58.253906 C 58.105266 58.253906 58.043563 58.280547 57.976562 58.310547 C 55.578562 59.389547 52.813422 59.958984 49.982422 59.958984 C 41.746422 59.958984 35.044922 55.249937 35.044922 49.460938 C 35.044922 43.671937 41.745422 38.960938 49.982422 38.960938 z M 77.460938 40.960938 C 77.184938 40.960938 76.960938 41.184938 76.960938 41.460938 L 76.960938 45.460938 C 76.960938 45.736938 77.184937 45.960937 77.460938 45.960938 C 77.736937 45.960938 77.960938 45.736938 77.960938 45.460938 L 77.960938 41.460938 C 77.960938 41.183937 77.736938 40.960938 77.460938 40.960938 z"/></svg>